<svg width="122" height="122" viewBox="0 0 122 122" fill="none" xmlns="http://www.w3.org/2000/svg">
<g clip-path="url(#clip0_1_125)">
<path d="M85.6545 95.4832C105.586 81.4272 110.668 54.3281 97.006 34.9558C83.3441 15.5834 56.1115 11.2737 36.1803 25.3297C16.2492 39.3857 11.1669 66.4848 24.8288 85.8571C38.4908 105.23 65.7234 109.539 85.6545 95.4832Z" fill="#FAD34F"/>
<path d="M57.1683 40.7879C58.0918 42.0975 56.639 42.2186 55.2917 43.1688C53.9444 44.119 53.2143 45.5407 52.2891 44.2289C51.3639 42.917 51.7092 41.0874 53.0565 40.1372C54.4021 39.1847 56.2431 39.4761 57.1683 40.7879Z" fill="white"/>
<path d="M66.4913 34.2131C67.4149 35.5226 65.9621 35.6438 64.6148 36.5939C63.2675 37.5441 62.5373 38.9659 61.6122 37.654C60.687 36.3421 61.0322 34.5125 62.3795 33.5623C63.7252 32.6098 65.5662 32.9012 66.4913 34.2131Z" fill="white"/>
<path d="M68.467 41.9342C70.2711 44.4925 69.5999 48.0716 66.9678 49.9278C64.3358 51.7841 60.7389 51.2148 58.9348 48.6566C57.1306 46.0983 61.1942 47.3293 63.8262 45.4731C66.4583 43.6169 66.6628 39.3759 68.467 41.9342Z" fill="white"/>
</g>
<defs>
<clipPath id="clip0_1_125">
<rect width="88.3204" height="85.8441" fill="white" transform="translate(0 50.9014) rotate(-35.1926)"/>
</clipPath>
</defs>
</svg>
