<svg width="79" height="97" viewBox="0 0 79 97" fill="none" xmlns="http://www.w3.org/2000/svg">
<path d="M78.4651 57.7675C78.4651 79.435 60.9001 97 39.2326 97V97C17.5651 97 0.00012207 79.435 0.00012207 57.7675V0H78.4651V57.7675Z" fill="#46EBB0"/>
<path d="M38.0119 69.05C38.0119 66.241 40.29 69.05 43.1017 69.05C45.9107 69.05 48.1915 66.241 48.1915 69.05C48.1915 71.8591 45.9134 74.1398 43.1017 74.1398C40.29 74.1398 38.0119 71.8617 38.0119 69.05Z" fill="white"/>
<path d="M21.9869 69.05C21.9869 66.241 24.265 69.05 27.0767 69.05C29.8857 69.05 32.1664 66.241 32.1664 69.05C32.1664 71.8591 29.8883 74.1398 27.0767 74.1398C24.265 74.1398 21.9869 71.8617 21.9869 69.05Z" fill="white"/>
<path d="M27.0873 58.2664C27.0873 53.0982 31.2773 48.9108 36.4429 48.9108C41.6086 48.9108 45.7986 53.1008 45.7986 58.2664C45.7986 63.4321 41.6086 57.9055 36.4429 57.9055C31.2773 57.9055 27.0873 63.4321 27.0873 58.2664Z" fill="white"/>
</svg>
